<svg id="visual" viewBox="0 0 900 600" width="900" height="600" xmlns="http://www.w3.org/2000/svg" xmlns:xlink="http://www.w3.org/1999/xlink" version="1.1"><rect x="0" y="0" width="900" height="600" fill="#3f50b5"></rect><path d="M0 347L37.5 369.3C75 391.7 150 436.3 225 441.5C300 446.7 375 412.3 450 391.8C525 371.3 600 364.7 675 340.5C750 316.3 825 274.7 862.5 253.8L900 233L900 601L862.5 601C825 601 750 601 675 601C600 601 525 601 450 601C375 601 300 601 225 601C150 601 75 601 37.5 601L0 601Z" fill="#ffffff" stroke-linecap="round" stroke-linejoin="miter"></path></svg>